<svg width="24" height="23" viewBox="0 0 24 23" fill="none" xmlns="http://www.w3.org/2000/svg">
<path fill-rule="evenodd" clip-rule="evenodd" d="M6.65935 20.1237C7.15168 20.1237 7.55185 20.5238 7.55185 21.0162C7.55185 21.5085 7.15168 21.9075 6.65935 21.9075C6.16701 21.9075 5.76801 21.5085 5.76801 21.0162C5.76801 20.5238 6.16701 20.1237 6.65935 20.1237Z" stroke="#393F42" stroke-width="1.5" stroke-linecap="round" stroke-linejoin="round"/>
<path fill-rule="evenodd" clip-rule="evenodd" d="M19.7872 20.1237C20.2795 20.1237 20.6797 20.5238 20.6797 21.0162C20.6797 21.5085 20.2795 21.9075 19.7872 21.9075C19.2948 21.9075 18.8947 21.5085 18.8947 21.0162C18.8947 20.5238 19.2948 20.1237 19.7872 20.1237Z" stroke="#393F42" stroke-width="1.5" stroke-linecap="round" stroke-linejoin="round"/>
<path d="M1.20821 0.791626L3.63488 1.21163L4.75838 14.5968C4.84938 15.6876 5.76055 16.5253 6.85488 16.5253H19.5855C20.6309 16.5253 21.5175 15.7576 21.668 14.7216L22.7752 7.07063C22.9117 6.12679 22.1802 5.28213 21.227 5.28213H4.02455" stroke="#393F42" stroke-width="1.5" stroke-linecap="round" stroke-linejoin="round"/>
<path d="M14.4796 9.59408H17.7148" stroke="#393F42" stroke-width="1.5" stroke-linecap="round" stroke-linejoin="round"/>
</svg>
