<svg width="24" height="24" viewBox="0 0 24 24" fill="none" xmlns="http://www.w3.org/2000/svg">
<path fill-rule="evenodd" clip-rule="evenodd" d="M11.7212 22.3294C9.1888 20.7709 6.83296 18.9366 4.69584 16.8594C3.19335 15.3634 2.04951 13.5397 1.35195 11.528C0.0966689 7.62536 1.56292 3.15763 5.66631 1.83544C7.82288 1.14117 10.1782 1.53798 11.9954 2.90172C13.8134 1.53964 16.1679 1.14297 18.3246 1.83544C22.428 3.15763 23.9048 7.62536 22.6495 11.528C21.9519 13.5397 20.8081 15.3634 19.3056 16.8594C17.1685 18.9366 14.8126 20.7709 12.2803 22.3294L12.006 22.5L11.7212 22.3294Z" stroke="#939393" stroke-width="1.5" stroke-linecap="round" stroke-linejoin="round"/>
<path d="M16.3625 6.22852C17.6054 6.62553 18.4885 7.74133 18.5988 9.05416" stroke="#939393" stroke-width="1.5" stroke-linecap="round" stroke-linejoin="round"/>
</svg>
