<svg width="22" height="26" viewBox="0 0 22 26" fill="none" xmlns="http://www.w3.org/2000/svg">
<path fill-rule="evenodd" clip-rule="evenodd" d="M1.08429 15.085V14.8295C1.12177 14.0737 1.36403 13.3413 1.78608 12.7079C2.48858 11.9471 2.96948 11.0147 3.17833 10.0087C3.17833 9.23112 3.17833 8.44246 3.24624 7.6649C3.59714 3.92153 7.29849 1.33337 10.9546 1.33337H11.0451C14.7012 1.33337 18.4025 3.92153 18.7648 7.6649C18.8327 8.44246 18.7648 9.23112 18.8213 10.0087C19.033 11.0171 19.5134 11.9523 20.2136 12.719C20.6388 13.3468 20.8814 14.0765 20.9154 14.8295V15.0739C20.9406 16.0894 20.5909 17.0797 19.9306 17.862C19.0581 18.7768 17.8741 19.3459 16.6028 19.4615C12.8748 19.8614 9.11353 19.8614 5.38556 19.4615C4.11566 19.3409 2.93338 18.7726 2.05774 17.862C1.40766 17.0791 1.06261 16.0947 1.08429 15.085Z" stroke="#393F42" stroke-width="1.5" stroke-linecap="round" stroke-linejoin="round"/>
<path d="M8.14742 23.3271C8.7299 24.0583 9.58529 24.5314 10.5243 24.6419C11.4632 24.7524 12.4084 24.4911 13.1505 23.9159C13.3787 23.7457 13.5841 23.5479 13.7617 23.3271" stroke="#393F42" stroke-width="1.5" stroke-linecap="round" stroke-linejoin="round"/>
</svg>
