<?xml version="1.0" encoding="iso-8859-1"?>
<!-- Generator: Adobe Illustrator 18.0.0, SVG Export Plug-In . SVG Version: 6.00 Build 0)  -->
<!DOCTYPE svg PUBLIC "-//W3C//DTD SVG 1.1//EN" "http://www.w3.org/Graphics/SVG/1.1/DTD/svg11.dtd">
<svg version="1.1" id="Capa_1" xmlns="http://www.w3.org/2000/svg" xmlns:xlink="http://www.w3.org/1999/xlink" x="0px" y="0px"
	 viewBox="0 0 297 297" style="enable-background:new 0 0 297 297;" xml:space="preserve">
<g>
	<g>
		<g>
			<path style="fill:#B23322;" d="M56.885,122.221c0.097,0.005,0.201,0.014,0.297,0.026c47.661,5.67,69.208-24.163,71.926-28.261
				c-3.938-3.297-9.531-6.08-14.93-2.122c-9.8,7.187-11.759,21.857-50.304,19.095c-38.545-2.763-35.932-28.241-35.932-28.241
				s0.653-10.865-9.146-10.865c0,0-4.218,12.05-8.658,28.88C28.522,120.53,56.602,122.207,56.885,122.221z"/>
		</g>
		<g>
			<path style="fill:#F86E51;" d="M275.543,169.607c-27.223-9.183-43.028-5.382-140.195-69.301
				c-5.442,7.462-26.041,31.403-66.326,31.403c-4.045,0-8.288-0.242-12.734-0.765c-2.574-0.151-28.65-2.124-48.626-20.364
				c-7.056,29.547-12.759,67.977-0.449,85l287.256,13.237C294.47,208.816,307.203,180.287,275.543,169.607z"/>
		</g>
		<g style="opacity:0.47;">
			<g>
				<path style="fill:#D34B35;" d="M28.335,130.944c4.446,0.523,8.689,0.765,12.734,0.765c4.705,0,9.13-0.338,13.305-0.926
					c-6.873-0.705-29.147-4.165-46.712-20.204c-1.14,4.773-2.243,9.779-3.242,14.889C16.622,130.088,26.779,130.853,28.335,130.944z
					"/>
			</g>
			<g>
				<path style="fill:#D34B35;" d="M275.543,169.607c-27.223-9.183-43.028-5.382-140.195-69.301
					c-1.795,2.461-5.25,6.717-10.505,11.313c81.757,52.176,97.242,49.384,122.746,57.988c27.673,9.335,21.429,32.306,19.418,37.944
					l27.462,1.265C294.47,208.816,307.203,180.287,275.543,169.607z"/>
			</g>
		</g>
		<g>
			<path style="fill:#32373B;" d="M69.023,131.71c40.285,0,60.883-23.941,66.326-31.403c-0.309-0.203-0.608-0.399-0.918-0.603
				c0,0-2.112-3.03-5.323-5.718c-2.717,4.099-24.265,33.932-71.926,28.261c-0.096-0.012-0.2-0.021-0.297-0.026
				c-0.283-0.014-28.362-1.692-46.747-21.488c-0.826,3.132-1.66,6.43-2.476,9.847c19.977,18.241,46.053,20.214,48.626,20.364
				C60.734,131.468,64.978,131.71,69.023,131.71z"/>
		</g>
	</g>
	<g>
		<path style="fill:#C63C22;" d="M7.213,195.58l287.256,13.237c-2.953,13.229-11.278,16.331-11.278,16.331H18.36
			C18.36,225.147,7.213,225.147,7.213,195.58z"/>
	</g>
	<g>
		<g>
			<path style="fill:#32373B;" d="M138.316,133.156c3.146,2.555,7.669-2.454,7.669-2.454l14.325-14.326
				c-2.367-1.487-4.795-3.024-7.284-4.611l-14.711,14.71C138.316,126.475,134.629,130.162,138.316,133.156z"/>
		</g>
		<g>
			<path style="fill:#32373B;" d="M163.087,145.767c3.146,2.554,7.669-2.454,7.669-2.454l12.78-12.78
				c-2.407-1.417-4.889-2.894-7.454-4.441l-12.995,12.995C163.087,139.087,159.4,142.773,163.087,145.767z"/>
		</g>
		<g>
			<path style="fill:#32373B;" d="M192.481,158.434c3.146,2.555,7.669-2.454,7.669-2.454l10.433-10.433
				c-2.48-1.277-5.071-2.644-7.785-4.11l-10.317,10.317C192.481,151.754,188.794,155.44,192.481,158.434z"/>
		</g>
		<g>
			<path style="fill:#32373B;" d="M219.618,170.264c3.146,2.555,7.669-2.454,7.669-2.454l10.045-10.045
				c-2.631-1.018-5.43-2.165-8.427-3.468l-9.287,9.287C219.618,163.584,215.931,167.27,219.618,170.264z"/>
		</g>
	</g>
	<g>
		<circle style="fill:#D0D5D9;" cx="65.392" cy="162.643" r="23.459"/>
	</g>
	<g>
		<circle style="fill:#9E2515;" cx="65.392" cy="162.643" r="13.264"/>
	</g>
</g>
<g>
</g>
<g>
</g>
<g>
</g>
<g>
</g>
<g>
</g>
<g>
</g>
<g>
</g>
<g>
</g>
<g>
</g>
<g>
</g>
<g>
</g>
<g>
</g>
<g>
</g>
<g>
</g>
<g>
</g>
</svg>
