<?xml version="1.0" encoding="iso-8859-1"?>
<!-- Generator: Adobe Illustrator 19.0.0, SVG Export Plug-In . SVG Version: 6.00 Build 0)  -->
<svg version="1.1" id="Layer_1" xmlns="http://www.w3.org/2000/svg" xmlns:xlink="http://www.w3.org/1999/xlink" x="0px" y="0px"
	 viewBox="0 0 512 512" style="enable-background:new 0 0 512 512;" xml:space="preserve">
<path style="fill:#65687A;" d="M470.275,319.707c-31.452-8.06-111.592-30.527-164.158-118.137l-113.892,52.565l0,0
	c0,67.739,54.913,122.653,122.653,122.653h175.218V345.18C490.097,333.14,481.936,322.695,470.275,319.707z"/>
<path style="fill:#5B5D6E;" d="M333.938,239.515c-3.039,9.172-8.509,23.296-16.467,34.666c-2.605,3.722-6.878,5.662-11.293,5.662
	c-1.584,0-3.186-0.25-4.735-0.756c-8.231-2.691-21.62-5.94-38.253-5.94c-16.953,0-37.278,3.374-58.965,14.155
	c-0.054,0.026-0.112,0.034-0.165,0.059c0.357,0.554,0.845,1.044,1.17,1.611c2.495,4.378,4.758,9.187,6.538,14.12
	c0.083-0.04,0.175-0.06,0.258-0.101c16.451-8.177,33.665-12.323,51.165-12.323c14.29,0,25.73,2.76,32.811,5.074
	c3.294,1.076,6.72,1.623,10.178,1.623c10.302,0,19.889-4.91,25.646-13.136c6.833-9.761,11.993-21.009,15.624-30.466
	C342.874,249.336,338.375,244.551,333.938,239.515z"/>
<path style="fill:#707487;" d="M37.037,203.129c-4.551-2.314-7.549-6.85-7.862-11.947c-2.096-34.079,16.439-78.764,27.715-102.447
	c3.994-8.387,14.66-10.903,22.011-5.222c22.88,17.687,70.167,41.398,108.945,41.398c27.64,0,48.303-10.464,59.79-18.187
	c6.28-4.223,14.659-2.897,19.307,3.076c15.709,20.194,48.323,65.376,68.104,115.723c1.19,3.029,1.277,6.357,0.335,9.473
	c-2.533,8.379-8.504,25.745-17.911,39.184c-3.542,5.058-10.159,6.825-16.028,4.906c-16.619-5.432-54.251-13.145-97.219,8.214
	c-4.878,2.425-10.754,1.604-15.038-1.761l-17.183-13.495c-0.734-0.576-1.523-1.08-2.354-1.503L37.037,203.129z"/>
<path style="fill:#65687A;" d="M78.9,83.514c-7.35-5.681-18.017-3.166-22.011,5.222c-11.276,23.683-29.811,68.368-27.715,102.447
	c0.313,5.097,3.311,9.633,7.863,11.947l62.249,11.322c-7.811-36.974,0.949-89.54,9.571-112.29
	C96.974,96.011,86.554,89.43,78.9,83.514z"/>
<path style="fill:#464655;" d="M503.238,431.544H361.813c-55.868,0-109.229-23.196-147.34-64.047l-70.906-76.005
	c-5.059-5.424-12.793-7.442-19.859-5.185l-9.471,3.027L6.927,266.341c-4.731-1.014-7.745-5.671-6.731-10.401l7.341-34.268
	c1.014-4.732,5.671-7.746,10.402-6.732l77.676,16.647c28.247,6.054,54.288,19.749,75.283,39.594l72.654,68.677
	c32.531,30.751,75.599,47.884,120.363,47.884h139.324c4.838,0,8.761,3.923,8.761,8.761v26.283
	C511.999,427.621,508.077,431.544,503.238,431.544z"/>
<path style="fill:#5B5D6E;" d="M170.897,271.179l72.653,68.676c32.531,30.751,75.599,47.884,120.365,47.884h139.324v-8.761
	c0-4.838-3.923-8.761-8.761-8.761H363.915c-40.288,0-79.049-15.42-108.327-43.095l-72.656-68.678
	c-23.326-22.049-52.26-37.267-83.645-43.992l-69.109-14.81c-4.731-1.014-9.388,2-10.402,6.731l-1.835,8.566l77.675,16.646
	C123.862,237.639,149.903,251.334,170.897,271.179z"/>
<g>
	<path style="fill:#464655;" d="M260.666,155.001c-2.682,0-5.326-1.223-7.046-3.542c-2.883-3.884-2.071-9.377,1.818-12.252
		l20.636-15.306c3.902-2.875,9.377-2.071,12.255,1.814c2.883,3.884,2.071,9.377-1.818,12.252l-20.636,15.306
		C264.306,154.437,262.48,155.001,260.666,155.001z"/>
	<path style="fill:#464655;" d="M277.654,180.215c-2.947,0-5.826-1.488-7.482-4.183c-2.524-4.132-1.228-9.522,2.9-12.046
		l22.236-13.612c4.111-2.533,9.51-1.232,12.046,2.892c2.524,4.132,1.228,9.522-2.9,12.046l-22.236,13.612
		C280.793,179.796,279.211,180.215,277.654,180.215z"/>
	<path style="fill:#464655;" d="M294.354,207.319c-3.11,0-6.126-1.66-7.713-4.586c-2.302-4.252-0.723-9.574,3.53-11.875
		l22.514-12.201c4.257-2.302,9.578-0.727,11.88,3.525c2.305,4.252,0.723,9.574-3.53,11.875l-22.514,12.201
		C297.194,206.977,295.761,207.319,294.354,207.319z"/>
</g>
<g>
</g>
<g>
</g>
<g>
</g>
<g>
</g>
<g>
</g>
<g>
</g>
<g>
</g>
<g>
</g>
<g>
</g>
<g>
</g>
<g>
</g>
<g>
</g>
<g>
</g>
<g>
</g>
<g>
</g>
</svg>
